REM DIRINDEX 1\2,1\3,1\4,1\5,1\6
REM DIRNAME cjc091,folder01,folder02,folder03,folder04,folder05
TITLE ""
FILE "CD1-34.mp3" MP3
  TRACK 01 AUDIO
    TITLE "6:cjc091_0638"
    INDEX 01 00:00:00
  TRACK 02 AUDIO
    TITLE "0:"
    INDEX 01 00:02:00
  TRACK 03 AUDIO
    TITLE "2:cjc091_0639"
    INDEX 01 00:03:23
  TRACK 04 AUDIO
    TITLE "0:"
    INDEX 01 00:04:74
  TRACK 05 AUDIO
    TITLE "3:cjc091_0640"
    INDEX 01 00:05:20
  TRACK 06 AUDIO
    TITLE "0:"
    INDEX 01 00:06:71
  TRACK 07 AUDIO
    TITLE "4:cjc091_0641"
    INDEX 01 00:07:17
  TRACK 08 AUDIO
    TITLE "0:"
    INDEX 01 00:12:16
  TRACK 09 AUDIO
    TITLE "2:cjc091_0642"
    INDEX 01 00:13:28
  TRACK 10 AUDIO
    TITLE "0:"
    INDEX 01 00:14:60
  TRACK 11 AUDIO
    TITLE "3:cjc091_0643"
    INDEX 01 00:14:74
  TRACK 12 AUDIO
    TITLE "0:"
    INDEX 01 00:17:08
  TRACK 13 AUDIO
    TITLE "4:cjc091_0644"
    INDEX 01 00:17:29
  TRACK 14 AUDIO
    TITLE "0:"
    INDEX 01 00:19:60
  TRACK 15 AUDIO
    TITLE "2:cjc091_0645"
    INDEX 01 00:20:65
  TRACK 16 AUDIO
    TITLE "0:"
    INDEX 01 00:23:06
  TRACK 17 AUDIO
    TITLE "3:cjc091_0646"
    INDEX 01 00:23:34
  TRACK 18 AUDIO
    TITLE "0:"
    INDEX 01 00:25:23
  TRACK 19 AUDIO
    TITLE "4:cjc091_0647"
    INDEX 01 00:25:43
  TRACK 20 AUDIO
    TITLE "0:"
    INDEX 01 00:28:68
  TRACK 21 AUDIO
    TITLE "2:cjc091_0648"
    INDEX 01 00:30:03
  TRACK 22 AUDIO
    TITLE "0:"
    INDEX 01 00:31:41
  TRACK 23 AUDIO
    TITLE "3:cjc091_0649"
    INDEX 01 00:31:55
  TRACK 24 AUDIO
    TITLE "0:"
    INDEX 01 00:33:30
  TRACK 25 AUDIO
    TITLE "4:cjc091_0650"
    INDEX 01 00:33:52
  TRACK 26 AUDIO
    TITLE "0:"
    INDEX 01 00:36:38
  TRACK 27 AUDIO
    TITLE "2:cjc091_0651"
    INDEX 01 00:37:54
  TRACK 28 AUDIO
    TITLE "0:"
    INDEX 01 00:39:11
  TRACK 29 AUDIO
    TITLE "3:cjc091_0652"
    INDEX 01 00:39:13
  TRACK 30 AUDIO
    TITLE "0:"
    INDEX 01 00:40:15
  TRACK 31 AUDIO
    TITLE "4:cjc091_0653"
    INDEX 01 00:40:34
  TRACK 32 AUDIO
    TITLE "0:"
    INDEX 01 00:44:50
  TRACK 33 AUDIO
    TITLE "2:cjc091_0654"
    INDEX 01 00:45:61
  TRACK 34 AUDIO
    TITLE "0:"
    INDEX 01 00:47:30
  TRACK 35 AUDIO
    TITLE "3:cjc091_0655"
    INDEX 01 00:47:46
  TRACK 36 AUDIO
    TITLE "0:"
    INDEX 01 00:49:53
  TRACK 37 AUDIO
    TITLE "4:cjc091_0656"
    INDEX 01 00:49:74
  TRACK 38 AUDIO
    TITLE "0:"
    INDEX 01 00:53:02
  TRACK 39 AUDIO
    TITLE "2:cjc091_0657"
    INDEX 01 00:54:11
  TRACK 40 AUDIO
    TITLE "0:"
    INDEX 01 00:55:36
  TRACK 41 AUDIO
    TITLE "3:cjc091_0658"
    INDEX 01 00:55:53
  TRACK 42 AUDIO
    TITLE "0:"
    INDEX 01 00:57:50
  TRACK 43 AUDIO
    TITLE "4:cjc091_0659"
    INDEX 01 00:57:72
  TRACK 44 AUDIO
    TITLE "0:"
    INDEX 01 01:01:27
  TRACK 45 AUDIO
    TITLE "2:cjc091_0660"
    INDEX 01 01:02:42
  TRACK 46 AUDIO
    TITLE "0:"
    INDEX 01 01:03:71
  TRACK 47 AUDIO
    TITLE "3:cjc091_0661"
    INDEX 01 01:04:21
  TRACK 48 AUDIO
    TITLE "0:"
    INDEX 01 01:06:02
  TRACK 49 AUDIO
    TITLE "4:cjc091_0662"
    INDEX 01 01:06:22
  TRACK 50 AUDIO
    TITLE "0:"
    INDEX 01 01:09:63
  TRACK 51 AUDIO
    TITLE "2:cjc091_0663"
    INDEX 01 01:11:02
  TRACK 52 AUDIO
    TITLE "0:"
    INDEX 01 01:12:26
  TRACK 53 AUDIO
    TITLE "3:cjc091_0664"
    INDEX 01 01:12:52
  TRACK 54 AUDIO
    TITLE "0:"
    INDEX 01 01:14:51
  TRACK 55 AUDIO
    TITLE "4:cjc091_0665"
    INDEX 01 01:14:72
  TRACK 56 AUDIO
    TITLE "0:"
    INDEX 01 01:18:62
  TRACK 57 AUDIO
    TITLE "2:cjc091_0666"
    INDEX 01 01:19:72
  TRACK 58 AUDIO
    TITLE "0:"
    INDEX 01 01:22:17
  TRACK 59 AUDIO
    TITLE "3:cjc091_0667"
    INDEX 01 01:22:42
  TRACK 60 AUDIO
    TITLE "0:"
    INDEX 01 01:24:53
  TRACK 61 AUDIO
    TITLE "4:cjc091_0668"
    INDEX 01 01:25:02
  TRACK 62 AUDIO
    TITLE "0:"
    INDEX 01 01:28:12
  TRACK 63 AUDIO
    TITLE "2:cjc091_0669"
    INDEX 01 01:29:19
  TRACK 64 AUDIO
    TITLE "0:"
    INDEX 01 01:30:42
  TRACK 65 AUDIO
    TITLE "3:cjc091_0670"
    INDEX 01 01:30:50
  TRACK 66 AUDIO
    TITLE "0:"
    INDEX 01 01:31:65
  TRACK 67 AUDIO
    TITLE "4:cjc091_0671"
    INDEX 01 01:32:06
  TRACK 68 AUDIO
    TITLE "0:"
    INDEX 01 01:36:33
  TRACK 69 AUDIO
    TITLE "2:cjc091_0672"
    INDEX 01 01:37:44
  TRACK 70 AUDIO
    TITLE "0:"
    INDEX 01 01:39:02
  TRACK 71 AUDIO
    TITLE "3:cjc091_0673"
    INDEX 01 01:39:08
  TRACK 72 AUDIO
    TITLE "0:"
    INDEX 01 01:40:29
  TRACK 73 AUDIO
    TITLE "4:cjc091_0674"
    INDEX 01 01:40:48
  TRACK 74 AUDIO
    TITLE "0:"
    INDEX 01 01:46:68
  TRACK 75 AUDIO
    TITLE "2:cjc091_0675"
    INDEX 01 01:48:09
  TRACK 76 AUDIO
    TITLE "0:"
    INDEX 01 01:50:27
  TRACK 77 AUDIO
    TITLE "3:cjc091_0676"
    INDEX 01 01:50:45
  TRACK 78 AUDIO
    TITLE "0:"
    INDEX 01 01:52:65
  TRACK 79 AUDIO
    TITLE "4:cjc091_0677"
    INDEX 01 01:53:10
  TRACK 80 AUDIO
    TITLE "0:"
    INDEX 01 01:55:65
  TRACK 81 AUDIO
    TITLE "2:cjc091_0678"
    INDEX 01 01:57:06
  TRACK 82 AUDIO
    TITLE "0:"
    INDEX 01 01:58:15
  TRACK 83 AUDIO
    TITLE "3:cjc091_0679"
    INDEX 01 01:58:23
  TRACK 84 AUDIO
    TITLE "0:"
    INDEX 01 01:59:48
  TRACK 85 AUDIO
    TITLE "4:cjc091_0680"
    INDEX 01 01:59:67
  TRACK 86 AUDIO
    TITLE "0:"
    INDEX 01 02:04:53
  TRACK 87 AUDIO
    TITLE "2:cjc091_0681"
    INDEX 01 02:05:72
  TRACK 88 AUDIO
    TITLE "0:"
    INDEX 01 02:07:47
  TRACK 89 AUDIO
    TITLE "3:cjc091_0682"
    INDEX 01 02:07:55
  TRACK 90 AUDIO
    TITLE "0:"
    INDEX 01 02:09:32
  TRACK 91 AUDIO
    TITLE "4:cjc091_0683"
    INDEX 01 02:09:46
  TRACK 92 AUDIO
    TITLE "0:"
    INDEX 01 02:13:54
